<svg width="197" height="33" viewBox="0 0 197 33" fill="none" xmlns="http://www.w3.org/2000/svg">
<path d="M25.5461 28.4235C24.4146 29.8987 22.8462 31.0159 20.841 31.775C18.8358 32.5341 16.5585 32.9137 14.009 32.9137C11.3879 32.9137 9.06758 32.3193 7.04805 31.1305C5.02852 29.9417 3.46732 28.2444 2.36446 26.0387C1.27591 23.8186 0.710159 21.2334 0.667191 18.2828V15.8336C0.667191 11.1071 1.7987 7.4189 4.06172 4.76917C6.32474 2.1051 9.48295 0.773071 13.5363 0.773071C17.0168 0.773071 19.7811 1.63245 21.8293 3.3512C23.8775 5.06995 25.1092 7.54781 25.5246 10.7848H20.1965C19.5949 7.01786 17.4107 5.1344 13.6438 5.1344C11.2089 5.1344 9.35404 6.01526 8.0793 7.77698C6.81888 9.52437 6.16719 12.0953 6.12422 15.4899V17.8961C6.12422 21.2763 6.83321 23.9046 8.25117 25.7809C9.68347 27.6429 11.6672 28.5739 14.2023 28.5739C16.981 28.5739 18.9576 27.9436 20.132 26.6832V20.5602H13.6867V16.4352H25.5461V28.4235ZM49.3035 32.484C49.0744 32.04 48.8738 31.3167 48.702 30.3141C47.0405 32.0472 45.0066 32.9137 42.6004 32.9137C40.2658 32.9137 38.3608 32.2477 36.8856 30.9156C35.4103 29.5836 34.6727 27.9365 34.6727 25.9742C34.6727 23.4964 35.5893 21.5986 37.4227 20.2809C39.2703 18.9489 41.9057 18.2828 45.3289 18.2828H48.5301V16.7574C48.5301 15.5543 48.1935 14.5947 47.5203 13.8785C46.8471 13.1481 45.8231 12.7828 44.4481 12.7828C43.2592 12.7828 42.2853 13.0836 41.5262 13.6852C40.7671 14.2724 40.3875 15.0244 40.3875 15.941H35.1668C35.1668 14.6663 35.5893 13.4775 36.4344 12.3746C37.2794 11.2574 38.4253 10.3837 39.8719 9.75354C41.3328 9.12333 42.9585 8.80823 44.7488 8.80823C47.4702 8.80823 49.6401 9.49573 51.2586 10.8707C52.8771 12.2314 53.7078 14.1507 53.7508 16.6285V27.1129C53.7508 29.2041 54.0444 30.8727 54.6316 32.1188V32.484H49.3035ZM43.5672 28.7242C44.5984 28.7242 45.5652 28.4736 46.4676 27.9723C47.3842 27.471 48.0717 26.7978 48.5301 25.9528V21.5699H45.7156C43.782 21.5699 42.3283 21.9065 41.3543 22.5797C40.3803 23.2529 39.8934 24.2054 39.8934 25.4371C39.8934 26.4397 40.2228 27.2418 40.8816 27.8434C41.5548 28.4306 42.45 28.7242 43.5672 28.7242ZM68.5277 9.23792L68.6781 11.6656C70.3109 9.7607 72.5453 8.80823 75.3813 8.80823C78.4893 8.80823 80.6163 9.99703 81.7621 12.3746C83.4522 9.99703 85.8298 8.80823 88.8949 8.80823C91.4587 8.80823 93.3637 9.51721 94.6098 10.9352C95.8702 12.3531 96.5147 14.4443 96.5434 17.2086V32.484H91.3227V17.359C91.3227 15.8837 91.0004 14.8024 90.3559 14.1149C89.7113 13.4274 88.6443 13.0836 87.1547 13.0836C85.9659 13.0836 84.9919 13.4059 84.2328 14.0504C83.488 14.6806 82.9652 15.5114 82.6645 16.5426L82.6859 32.484H77.4652V17.1871C77.3936 14.4515 75.9971 13.0836 73.2758 13.0836C71.1846 13.0836 69.7022 13.9358 68.8285 15.6403V32.484H63.6078V9.23792H68.5277ZM105.326 20.6461C105.326 18.3688 105.777 16.3206 106.68 14.5016C107.582 12.6683 108.85 11.2646 110.482 10.2906C112.115 9.30237 113.992 8.80823 116.111 8.80823C119.248 8.80823 121.79 9.81799 123.738 11.8375C125.701 13.8571 126.76 16.5354 126.918 19.8727L126.939 21.0973C126.939 23.389 126.495 25.4371 125.607 27.2418C124.734 29.0465 123.473 30.443 121.826 31.4313C120.193 32.4196 118.303 32.9137 116.154 32.9137C112.874 32.9137 110.246 31.8252 108.27 29.6481C106.307 27.4567 105.326 24.542 105.326 20.9039V20.6461ZM110.547 21.0973C110.547 23.4892 111.041 25.3655 112.029 26.7262C113.018 28.0726 114.393 28.7457 116.154 28.7457C117.916 28.7457 119.284 28.0582 120.258 26.6832C121.246 25.3082 121.74 23.2959 121.74 20.6461C121.74 18.2972 121.232 16.4352 120.215 15.0602C119.212 13.6852 117.844 12.9977 116.111 12.9977C114.407 12.9977 113.053 13.678 112.051 15.0387C111.048 16.3851 110.547 18.4046 110.547 21.0973ZM143.607 25.8668L148.527 9.23792H153.92L145.863 32.484H141.33L133.209 9.23792H138.623L143.607 25.8668ZM167.15 32.484H161.929V9.23792H167.15V32.484ZM161.607 3.20081C161.607 2.39872 161.857 1.73271 162.359 1.20276C162.874 0.672811 163.605 0.407837 164.55 0.407837C165.495 0.407837 166.226 0.672811 166.741 1.20276C167.257 1.73271 167.515 2.39872 167.515 3.20081C167.515 3.98857 167.257 4.64742 166.741 5.17737C166.226 5.69299 165.495 5.95081 164.55 5.95081C163.605 5.95081 162.874 5.69299 162.359 5.17737C161.857 4.64742 161.607 3.98857 161.607 3.20081ZM186.804 28.7457C188.107 28.7457 189.188 28.3662 190.048 27.6071C190.907 26.8479 191.365 25.9098 191.423 24.7926H196.343C196.285 26.2392 195.834 27.5927 194.989 28.8531C194.144 30.0992 192.998 31.0875 191.552 31.818C190.105 32.5485 188.544 32.9137 186.868 32.9137C183.617 32.9137 181.039 31.861 179.134 29.7555C177.229 27.65 176.276 24.7425 176.276 21.0328V20.4957C176.276 16.958 177.221 14.1292 179.112 12.0094C181.003 9.87528 183.581 8.80823 186.846 8.80823C189.611 8.80823 191.86 9.61747 193.593 11.236C195.34 12.8401 196.257 14.9528 196.343 17.5739H191.423C191.365 16.2418 190.907 15.1461 190.048 14.2867C189.203 13.4274 188.121 12.9977 186.804 12.9977C185.113 12.9977 183.81 13.6136 182.893 14.8453C181.977 16.0628 181.511 17.9176 181.497 20.4098V21.2477C181.497 23.7685 181.948 25.652 182.85 26.8981C183.767 28.1298 185.085 28.7457 186.804 28.7457Z" fill="url(#paint0_linear)"/>
<defs>
<linearGradient id="paint0_linear" x1="98" y1="-5.07125" x2="98" y2="46.3039" gradientUnits="userSpaceOnUse">
<stop stop-color="#7482FF"/>
<stop offset="1" stop-color="#7482FF" stop-opacity="0"/>
</linearGradient>
</defs>
</svg>
